<?xml version="1.0" standalone="yes"?>
<svg xmlns="http://www.w3.org/2000/svg" width="1000" height="1000">
<path style="fill:#000000; stroke:none;" d="M445 108.424C425.726 110.955 405.431 109.189 386 110.039C311.649 113.295 223.019 120.893 166 174.089C125.942 211.462 113.22 269.018 105.729 321C97.6319 377.193 97.7299 434.393 97.9992 491C98.2908 552.26 98.7239 613.203 106.718 674C113.783 727.727 127.316 785.082 168.17 823.729C208.736 862.105 266.471 873.863 320 880.286C382.938 887.837 446.696 889.565 510 888.015C561.994 886.741 613.335 886.677 665 879.718C711.549 873.447 760.554 863.131 799 834.522C841.933 802.573 861.489 749.164 869.424 698C881.893 617.606 880 536.191 880 455C880 407.03 877.535 359.558 871.282 312C865.939 271.368 855.936 229.559 831.265 196C769.897 112.522 652.615 116.142 560 109.911C523.261 107.438 481.611 103.617 445 108.424z"/>
<path style="fill:#ffffff; stroke:none;" d="M613 312.424C472.961 330.812 337.111 408.338 257.029 526C219.867 580.6 201.987 669.104 264 713.421C274.384 720.842 285.824 726.351 298 730.254C323.011 738.271 350.056 739.341 376 736.83C473.387 727.406 566.724 673.568 639 610.285C670.398 582.793 699.682 550.933 721.2 515C752.471 462.779 771.115 393.967 725.83 344C718.16 335.537 708.423 329.065 698 324.439C686.514 319.342 673.495 315.358 661 313.95C645.374 312.189 628.704 310.362 613 312.424z"/>
<path style="fill:#000000; stroke:none;" d="M572 370.424C474.342 383.253 383.75 441.426 328.344 523C304.028 558.8 287.007 610.929 322.039 645.961C327.497 651.418 334.07 656.21 341 659.627C365.58 671.743 394.341 671.812 421 668.827C443.546 666.303 466.143 657.611 487 649.201C553.331 622.454 617.104 574.799 651.691 511C674.657 468.637 686.027 406.755 634 380.373C625.012 375.816 614.925 373.253 605 371.87C594.227 370.369 582.857 368.998 572 370.424z"/>
<path style="fill:#ffffff; stroke:none;" d="M559 402.425C547.039 403.938 535.726 404.942 524 408.152C517.69 409.88 511.405 413.883 505 414.783C492.657 416.518 480.148 411.18 470.853 423.289C465.936 429.696 467 438.442 467 446L467 491C467 497.783 465.558 506.539 467.879 512.999C470.315 519.779 476.395 522.369 483 523.536C509.945 528.297 547.943 496.496 546.24 469C545.78 461.564 541.962 455.324 536.957 450C535.425 448.371 530.054 444.463 531.207 441.742C532.422 438.875 541.408 439.152 544 438.975C556.209 438.141 568.63 438.067 580 443.492C611.569 458.556 600.49 491.858 584.555 514C558.306 550.471 509.063 580.199 463 577.96C457.321 577.684 451.069 575.726 446 573.19C415.043 557.699 430.275 523.27 445.025 502.001C448.727 496.664 455.338 491.895 457.93 486C460.722 479.649 453.954 471.091 452.725 465C451.748 460.159 454.868 456.6 455.887 452.164C456.283 450.44 455.607 449.638 453.836 450.154C441.388 453.781 427.984 470.418 420.084 480C394.548 510.975 372.72 563.194 407.286 596.41C412.448 601.37 418.509 604.765 425 607.688C432.933 611.261 442.324 613.313 451 613.911C519.965 618.66 596.897 569.344 627.892 509C650.28 465.413 635.805 411.433 582 403.87C574.751 402.851 566.266 401.506 559 402.425z"/>
<path style="fill:#000000; stroke:none;" d="M984.028 985.028C975.869 993.187 990.463 1005.48 997.972 997.972C1006.13 989.813 991.537 977.518 984.028 985.028z"/>
</svg>
