<?xml version="1.0" encoding="UTF-8"?>
<svg xmlns="http://www.w3.org/2000/svg" xmlns:xlink="http://www.w3.org/1999/xlink" width="128px" height="128px" viewBox="0 0 128 128" version="1.1">
<g id="surface1">
<path style=" stroke:none;fill-rule:nonzero;fill:rgb(0%,0%,0%);fill-opacity:1;" d="M 56.960938 13.878906 C 54.492188 14.203125 51.894531 13.976562 49.40625 14.085938 C 39.890625 14.5 28.546875 15.472656 21.246094 22.285156 C 16.121094 27.066406 14.492188 34.433594 13.535156 41.089844 C 12.496094 48.28125 12.507812 55.601562 12.542969 62.847656 C 12.582031 70.6875 12.636719 78.488281 13.660156 86.273438 C 14.5625 93.148438 16.296875 100.492188 21.527344 105.4375 C 26.71875 110.347656 34.109375 111.855469 40.960938 112.675781 C 49.015625 113.644531 57.175781 113.863281 65.28125 113.664062 C 71.933594 113.503906 78.507812 113.496094 85.121094 112.605469 C 91.078125 111.800781 97.351562 110.480469 102.273438 106.820312 C 107.765625 102.730469 110.269531 95.894531 111.285156 89.34375 C 112.882812 79.054688 112.640625 68.632812 112.640625 58.238281 C 112.640625 52.101562 112.324219 46.023438 111.523438 39.9375 C 110.839844 34.734375 109.558594 29.382812 106.402344 25.089844 C 98.546875 14.402344 83.535156 14.867188 71.679688 14.070312 C 66.976562 13.753906 61.644531 13.261719 56.960938 13.878906 Z M 56.960938 13.878906 "/>
<path style=" stroke:none;fill-rule:nonzero;fill:rgb(100%,100%,100%);fill-opacity:1;" d="M 78.464844 39.992188 C 60.539062 42.34375 43.148438 52.265625 32.898438 67.328125 C 28.144531 74.316406 25.855469 85.644531 33.792969 91.316406 C 35.121094 92.269531 36.585938 92.972656 38.144531 93.472656 C 41.34375 94.5 44.808594 94.636719 48.128906 94.3125 C 60.59375 93.109375 72.539062 86.214844 81.792969 78.117188 C 85.8125 74.597656 89.558594 70.519531 92.3125 65.921875 C 96.316406 59.234375 98.703125 50.429688 92.90625 44.03125 C 91.925781 42.949219 90.679688 42.121094 89.34375 41.527344 C 87.875 40.875 86.207031 40.367188 84.609375 40.1875 C 82.609375 39.960938 80.472656 39.726562 78.464844 39.992188 Z M 78.464844 39.992188 "/>
<path style=" stroke:none;fill-rule:nonzero;fill:rgb(0%,0%,0%);fill-opacity:1;" d="M 73.214844 47.414062 C 60.714844 49.054688 49.121094 56.503906 42.027344 66.945312 C 38.914062 71.527344 36.738281 78.199219 41.222656 82.683594 C 41.917969 83.382812 42.761719 83.996094 43.648438 84.433594 C 46.792969 85.984375 50.476562 85.992188 53.886719 85.609375 C 56.773438 85.285156 59.667969 84.175781 62.335938 83.097656 C 70.828125 79.675781 78.988281 73.574219 83.417969 65.40625 C 86.355469 59.984375 87.8125 52.066406 81.152344 48.6875 C 80 48.105469 78.710938 47.777344 77.441406 47.597656 C 76.0625 47.40625 74.605469 47.230469 73.214844 47.414062 Z M 73.214844 47.414062 "/>
<path style=" stroke:none;fill-rule:nonzero;fill:rgb(100%,100%,100%);fill-opacity:1;" d="M 71.550781 51.511719 C 70.019531 51.703125 68.574219 51.832031 67.070312 52.242188 C 66.265625 52.464844 65.460938 52.976562 64.640625 53.09375 C 63.058594 53.3125 61.457031 52.632812 60.269531 54.179688 C 59.640625 55 59.777344 56.121094 59.777344 57.089844 L 59.777344 62.847656 C 59.777344 63.714844 59.589844 64.835938 59.886719 65.664062 C 60.199219 66.53125 60.980469 66.863281 61.824219 67.011719 C 65.273438 67.621094 70.136719 63.550781 69.917969 60.03125 C 69.859375 59.082031 69.371094 58.28125 68.730469 57.601562 C 68.535156 57.390625 67.847656 56.890625 67.996094 56.542969 C 68.148438 56.175781 69.300781 56.210938 69.632812 56.1875 C 71.195312 56.082031 72.785156 56.074219 74.238281 56.765625 C 78.28125 58.695312 76.863281 62.957031 74.824219 65.792969 C 71.464844 70.460938 65.160156 74.265625 59.265625 73.980469 C 58.535156 73.945312 57.738281 73.691406 57.089844 73.367188 C 53.125 71.386719 55.074219 66.980469 56.964844 64.257812 C 57.4375 63.574219 58.285156 62.960938 58.613281 62.207031 C 58.972656 61.394531 58.105469 60.300781 57.949219 59.519531 C 57.824219 58.898438 58.222656 58.445312 58.355469 57.878906 C 58.402344 57.65625 58.316406 57.554688 58.089844 57.621094 C 56.496094 58.082031 54.78125 60.214844 53.769531 61.441406 C 50.503906 65.40625 47.707031 72.089844 52.132812 76.339844 C 52.792969 76.976562 53.570312 77.410156 54.398438 77.785156 C 55.414062 78.242188 56.617188 78.503906 57.726562 78.582031 C 66.554688 79.1875 76.402344 72.875 80.371094 65.152344 C 83.234375 59.574219 81.382812 52.664062 74.496094 51.695312 C 73.566406 51.566406 72.480469 51.394531 71.550781 51.511719 Z M 71.550781 51.511719 "/>
<path style=" stroke:none;fill-rule:nonzero;fill:rgb(0%,0%,0%);fill-opacity:1;" d="M 125.957031 126.082031 C 124.910156 127.128906 126.777344 128.703125 127.742188 127.742188 C 128.785156 126.695312 126.917969 125.121094 125.957031 126.082031 Z M 125.957031 126.082031 "/>
</g>
</svg>
