<?xml version="1.0" encoding="UTF-8"?>
<svg width="700pt" height="700pt" version="1.1" viewBox="0 0 700 700" xmlns="http://www.w3.org/2000/svg">
 <g>
  <path d="m323.75 17.5h-192.5c-11.602 0-22.73 4.6094-30.938 12.812-8.2031 8.207-12.812 19.336-12.812 30.938v437.5c0 11.602 4.6094 22.73 12.812 30.938 8.207 8.2031 19.336 12.812 30.938 12.812h192.5c11.602 0 22.73-4.6094 30.938-12.812 8.2031-8.207 12.812-19.336 12.812-30.938v-437.5c0-11.602-4.6094-22.73-12.812-30.938-8.207-8.2031-19.336-12.812-30.938-12.812zm26.25 481.25c0 6.9609-2.7656 13.641-7.6875 18.562s-11.602 7.6875-18.562 7.6875h-192.5c-6.9609 0-13.641-2.7656-18.562-7.6875s-7.6875-11.602-7.6875-18.562v-437.5c0-6.9609 2.7656-13.641 7.6875-18.562s11.602-7.6875 18.562-7.6875h26.25v8.75c0 2.3203 0.92188 4.5469 2.5625 6.1875s3.8672 2.5625 6.1875 2.5625h122.5c2.3203 0 4.5469-0.92188 6.1875-2.5625s2.5625-3.8672 2.5625-6.1875v-8.75h26.25c6.9609 0 13.641 2.7656 18.562 7.6875s7.6875 11.602 7.6875 18.562z"/>
  <path d="m568.75 262.5h-166.25c-4.832 0-8.75 3.918-8.75 8.75s3.918 8.75 8.75 8.75h166.25c6.9609 0 13.641 2.7656 18.562 7.6875s7.6875 11.602 7.6875 18.562v26.25h-8.75c-4.832 0-8.75 3.918-8.75 8.75v122.5c0 2.3203 0.92188 4.5469 2.5625 6.1875s3.8672 2.5625 6.1875 2.5625h8.75v26.25c0 6.9609-2.7656 13.641-7.6875 18.562s-11.602 7.6875-18.562 7.6875h-183.75c-4.832 0-8.75 3.918-8.75 8.75s3.918 8.75 8.75 8.75h183.75c11.602 0 22.73-4.6094 30.938-12.812 8.2031-8.207 12.812-19.336 12.812-30.938v-192.5c0-11.602-4.6094-22.73-12.812-30.938-8.207-8.2031-19.336-12.812-30.938-12.812z"/>
  <path d="m421.75 119c1.6719 2.1836 4.2539 3.4727 7 3.5 1.8945 0.011719 3.7422-0.60156 5.25-1.75 3.8672-2.8984 4.6484-8.3828 1.75-12.25l-13.824-18.551c30.758 5.25 59.406 19.094 82.633 39.934 23.223 20.84 40.078 47.828 48.617 77.844l-23.801-14c-2.0039-1.457-4.5273-1.9961-6.9492-1.4883-2.4258 0.51172-4.5156 2.0234-5.7617 4.1641-1.2461 2.1406-1.5234 4.7109-0.76953 7.0664 0.75391 2.3594 2.4727 4.2852 4.7305 5.3047l37.625 22.227c1.3125 0.8125 2.832 1.2344 4.375 1.2266h2.2734c2.2695-0.48437 4.1953-1.9648 5.25-4.0273l22.227-37.625c2.4375-4.168 1.1211-9.5156-2.9766-12.074-4.2109-2.4062-9.5742-1.0078-12.074 3.1484l-8.9258 15.227c-10.289-31.758-29.094-60.086-54.363-81.898-25.27-21.816-56.039-36.281-88.961-41.828l17.5-13.301v0.003906c3.8672-2.9023 4.6484-8.3867 1.75-12.25-2.8984-3.8672-8.3828-4.6523-12.25-1.75l-35 26.25c-3.8633 2.8984-4.6484 8.3828-1.75 12.25z"/>
 </g>
</svg>
